# xmcd CD database file
#
# Track frame offsets:
#	150
#	22657
#	41587
#	59205
#	75972
#	97760
#	117022
#	139517
#	157547
#	175290
#	192422
#	210650
#	241792
#
# Disc length: 4440 seconds
#
# Revision: 0
# Processed by: cddbd v1.5.1PL0 Copyright (c) Steve Scherf et al.
# Submitted via: CDex 1.51
#
DISCID=9311560d
DTITLE=avex trax - SUPER J-TRANCE BEST
DYEAR=2005
DGENRE=Trance
TTITLE0=CAROLS(S.T.F.remix)/ayumi hamasaki
TTITLE1=SWEET PAIN(DJ TORA remix)/globe
TTITLE2=real Emotion(OVERHEAD CHAMPION remix)/倖田來未
TTITLE3=BOY MEETS GIRL(DJ KAYA&DJ KOUSUKE remix)/TRF
TTITLE4=Here alone(OVERHEAD CHAMPION remix)/安良城 紅
TTITLE5=Starry Heavens(DJ UTO MYSTERIO remix)/day after tomorrow
TTITLE6=wanna Be A Dreammaker(SHAM-POO remix)/globe
TTITLE7=survival dAnce〜no no cry more〜(DJ TEN remix)/TRF
TTITLE8=Believe(SHAM-POO remix)/Folder 5
TTITLE9=Feel Like dance(DJ OZAWA remix)/globe
TTITLE10=EZ DO DANCE(DJ DRAGON remix)/TRF
TTITLE11=DEPARTURES(DJ KAYA remix)/globe
TTITLE12=DATE
EXTD=YEAR: 2005
EXTT0=
EXTT1=
EXTT2=
EXTT3=
EXTT4=
EXTT5=
EXTT6=
EXTT7=
EXTT8=
EXTT9=
EXTT10=
EXTT11=
EXTT12=
PLAYORDER=
